<?xml version="1.0" standalone="no"?>
<!DOCTYPE svg PUBLIC "-//W3C//DTD SVG 20010904//EN"
 "http://www.w3.org/TR/2001/REC-SVG-20010904/DTD/svg10.dtd">
<svg version="1.0" xmlns="http://www.w3.org/2000/svg"
 width="512.000000pt" height="512.000000pt" viewBox="0 0 512.000000 512.000000"
 preserveAspectRatio="xMidYMid meet">

<g transform="translate(0.000000,512.000000) scale(0.100000,-0.100000)"
fill="#000000" stroke="none">
<path d="M2371 5110 c-626 -52 -1179 -307 -1616 -745 -347 -346 -586 -779
-689 -1245 -80 -365 -80 -755 0 -1120 191 -864 846 -1589 1689 -1865 274 -90
511 -128 805 -128 693 0 1315 258 1805 748 407 405 654 908 731 1485 22 167
22 473 0 640 -77 578 -323 1077 -731 1486 -402 403 -913 656 -1475 728 -150
20 -388 27 -519 16z m899 -1220 c19 -19 20 -33 20 -244 0 -224 -1 -234 -33
-257 -1 -1 -86 -4 -188 -8 -168 -5 -189 -8 -209 -26 -43 -38 -50 -74 -50 -244
l0 -160 215 -3 c190 -3 216 -5 232 -21 16 -16 18 -41 18 -261 0 -191 -3 -246
-14 -259 -12 -15 -41 -17 -232 -17 l-219 0 0 -568 c0 -475 -2 -571 -14 -588
-13 -18 -30 -19 -263 -22 -235 -3 -251 -2 -274 17 l-24 19 -3 565 -2 566 -186
3 c-170 3 -187 5 -200 22 -11 16 -14 68 -14 260 0 209 2 242 17 258 14 16 34
18 198 18 l182 0 6 213 c4 171 9 227 26 290 53 200 183 351 360 418 107 40
167 47 404 48 214 1 228 0 247 -19z"/>
</g>
</svg>
